<?xml version="1.0" encoding="UTF-8" standalone="no"?>

<svg id="igf-logo"
xmlns:svg="http://www.w3.org/2000/svg"
xmlns="http://www.w3.org/2000/svg"
version="1.1"
width="400"
height="400"
xml:space="preserve">

<defs id="defs" />

<g id="logo" transform="matrix(1.25,0,0,-1.25,0,400)">

<path id="text"
d="m 61.699087,73.77615 0,-21.22496 4.125,0 -0.2,11.92496 12.275,-12.42496 0,21.17496 -4.125,0 0.2,-11.825 -12.275,12.375 z m 106.025003,0 0,-21.22496 4.125,0 -0.2,11.92496 12.275,-12.42496 0,21.17496 -4.125,0 0.2,-11.825 -12.275,12.375 z m 66.275,0 0,-21.22496 4.125,0 -0.2,11.92496 12.3,-12.42496 0,21.17496 -4.15,0 0.225,-11.825 -12.3,12.375 z m -144.025003,-0.05 c -3.1731,0 -5.1207,-0.675 -5.15,-0.675 l 0,-20.25004 c 0,0 1.8578,-0.6 4.3,-0.6 5.55,0 12.950003,1.21368 12.950003,10.75004 0,8.8988 -7.018003,10.775 -12.100003,10.775 z m 42.075003,0 c -2.444,0 -4.209,-0.457 -4.675,-0.575 l 0,-20.55004 4.175,0 0,6.12504 c 0.465,-0.05824 0.933,-0.1 1.4,-0.1 4.345,0 9.275,1.846904 9.275,7.45 0,5.544896 -4.752,7.65 -10.175,7.65 z m 64.225,0 c -3.172,0 -5.121,-0.675 -5.15,-0.675 l 0,-20.25004 c 0,0 1.859,-0.6 4.3,-0.6 5.55,0 12.95,1.21368 12.95,10.75004 0,8.8988 -7.017,10.775 -12.1,10.775 z m -145.800003,-0.45 0,-20.67504 4.15,0 0,20.67504 -4.15,0 z m 57.600003,0 0,-20.67504 13.175,0 0.65,3.72504 -9.65,0 0,3.7 7.275,0 0.425,3.6 -7.7,0 0,5.925 8.65,0 -0.425,3.725 -12.4,0 z m 40.05,0 0,-20.67504 13.15,0 0.65,3.72504 -9.65,0 0,3.7 7.3,0 0.4,3.6 -7.7,0 0,5.925 8.65,0 -0.425,3.725 -12.375,0 z m 66.575,0 0,-20.67504 13.15,0 0.65,3.72504 -9.65,0 0,3.7 7.275,0 0.425,3.6 -7.7,0 0,5.925 8.65,0 -0.425,3.725 -12.375,0 z m 41.55,0 -0.525,-3.725 5.725,0 0,-16.95004 4.15,0 0,16.95004 5.1,0 0.525,3.725 -14.975,0 z m -123.275,-3.225 c 2.333,0 5.075,-0.910904 5.075,-3.975 0,-2.8602 -2.792,-3.85 -5.125,-3.85 -0.99,0 -1.231,0.01208 -1.375,0.1 l 0,7.6 c 0.144,0.05904 0.463,0.125 1.425,0.125 z m -42.725003,-0.15 c 3.2422,0 7.45,-1.116 7.45,-6.95 0,-5.59924 -4.1742,-6.825 -7.475,-6.825 -0.409,0 -0.8156,0.0432 -1.225,0.1 l 0,13.55 c 0.4094,0.05824 0.8117,0.125 1.25,0.125 z m 106.325003,0 c 3.242,0 7.45,-1.116 7.45,-6.95 0,-5.59924 -4.174,-6.825 -7.475,-6.825 -0.409,0 -0.817,0.0432 -1.225,0.1 l 0,13.55 c 0.408,0.05824 0.812,0.125 1.25,0.125 z m -137.225003,-31.425 -9.75,-21.77504 4.525,0 1.825,4.2 6.8,0 1.8,-4.2 4.5,0 -9.7,21.77504 z m 211.025003,0 -9.75,-21.77504 4.525,0 1.825,4.2 6.8,0 1.825,-4.2 4.475,0 -9.7,21.77504 z m -191.350003,-0.27504 -5.775,-21.52496 4.525,0 2.375,10.47504 4.55,-10.62504 4.675,10.62504 2.425,-10.47504 4.475,0 -5.8,21.52496 -5.6,-13.02496 -5.85,13.02496 z m -43.65,-0.37496 c -6.7645,0 -11.3,-4.56624 -11.3,-10.67496 0,-6.2272 4.1477,-10.87504 11.35,-10.87504 8.6317,0 10.1,7.73424 10.1,10.82496 l 0,0.42504 -13.625,0 -0.725,-3.2 9.825,0 c -0.0875,-0.81328 -0.7804,-4.32504 -5.65,-4.32504 -4.3742,0 -6.875,3.03928 -6.875,7 0,4.00416 2.909,6.95008 6.875,6.95008 3.6446,0 5.3668,-2.16296 5.6,-2.42504 l 2.7,2.7 c -0.2043,0.23288 -2.9969,3.6 -8.275,3.6 z m 93.325003,0 c -4.212,0 -7.8,-2.06576 -7.8,-6.32504 0,-2.04072 0.684,-3.5084 3.3,-4.84992 3.36,-1.72136 7.575,-1.552 7.575,-4.17504 0,-1.54608 -1.233,-2.3 -3.575,-2.3 -3.074,0 -5.414,2.03592 -5.675,2.3 l -2.075,-3.5 c 1.105,-0.84688 3.994,-2.7 7.65,-2.7 5.055,0 8.05,2.60432 8.05,6.6 0,2.50704 -1.166,4.03768 -3.2,5.17504 -3.447,1.89584 -7.75,1.60072 -7.75,3.87496 0,1.4 1.251,2.15 3.125,2.15 2.399,0 4.019,-0.83808 5.5,-1.97504 l 1.9,3.35008 c -0.524,0.40992 -3.427,2.37496 -7.025,2.37496 z m 69.85,0 c -4.212,0 -7.825,-2.06576 -7.825,-6.32504 0,-2.04072 0.71,-3.5084 3.325,-4.84992 3.36,-1.72136 7.575,-1.552 7.575,-4.17504 0,-1.54608 -1.233,-2.3 -3.575,-2.3 -3.074,0 -5.438,2.03592 -5.7,2.3 l -2.05,-3.5 c 1.106,-0.84688 3.971,-2.7 7.625,-2.7 5.057,0 8.05,2.60432 8.05,6.6 0,2.50704 -1.167,4.03768 -3.2,5.17504 -3.448,1.89584 -7.75,1.60072 -7.75,3.87496 0,1.4 1.252,2.15 3.125,2.15 2.4,0 4.018,-0.83808 5.5,-1.97504 l 1.925,3.35008 c -0.522,0.40992 -3.428,2.37496 -7.025,2.37496 z m 46.525,0 -4.15,-1.17496 9.525,-20.67504 9.85,20.67504 -4.175,1.17496 -5.55,-13.12504 -5.5,13.12504 z m -143.05,-0.45 0,-20.67504 13.15,0 0.65,3.72504 -9.65,0 0,3.7 7.275,0 0.425,3.6 -7.7,0 0,5.92504 8.65,0 -0.425,3.72496 -12.375,0 z m 51.375,0 0,-20.67504 4.15,0 0,6.8 7.05,0 0.45,3.62504 -7.5,0 0,6.52504 8.5,0 -0.4,3.72496 -12.25,0 z m 18.45,0 0,-20.67504 13.175,0 0.625,3.72504 -9.65,0 0,3.7 7.3,0 0.4,3.6 -7.7,0 0,5.92504 8.675,0 -0.45,3.72496 -12.375,0 z m 38.825,0 -0.525,-3.72496 5.75,0 0,-16.95008 4.125,0 0,16.95008 5.1,0 0.525,3.72496 -14.975,0 z m 20.575,0 0,-20.67504 4.15,0 0,20.67504 -4.15,0 z m 54.1,0 0,-20.67504 11.775,0 0.475,3.72504 -8.1,0 0,16.95 -4.15,0 z m -226.000003,-7.5 2.125,-5.55 -4.325,0 2.2,5.55 z m 211.025003,0 2.125,-5.55 -4.325,0 2.2,5.55 z"
style="fill:#231f20;fill-opacity:1;fill-rule:nonzero;stroke:none" />

<g id="picto">

<path id="center"
d="m 149.69909,251.97615 c -2.261,0 -4.125,-1.866 -4.125,-4.125 0,-2.264 1.864,-4.1 4.125,-4.1 2.26,0 4.1,1.836 4.1,4.1 0,2.259 -1.84,4.125 -4.1,4.125 z m 4.1,-4.125 c 0,-2.264 1.862,-4.1 4.125,-4.1 2.259,0 4.1,1.836 4.1,4.1 0,2.259 -1.841,4.125 -4.1,4.125 -2.263,0 -4.125,-1.866 -4.125,-4.125 z m 8.225,0 c 0,-2.264 1.866,-4.1 4.125,-4.1 2.259,0 4.1,1.836 4.1,4.1 0,2.259 -1.841,4.125 -4.1,4.125 -2.259,0 -4.125,-1.866 -4.125,-4.125 z m 8.225,0 c 0,-2.264 1.842,-4.1 4.1,-4.1 2.263,0 4.125,1.836 4.125,4.1 0,2.259 -1.862,4.125 -4.125,4.125 -2.258,0 -4.1,-1.866 -4.1,-4.125 z m 4.1,-4.1 c -2.258,0 -4.1,-1.865 -4.1,-4.125 0,-2.263 1.842,-4.1 4.1,-4.1 2.263,0 4.125,1.837 4.125,4.1 0,2.26 -1.862,4.125 -4.125,4.125 z m 4.125,-4.125 c 0,-2.263 1.838,-4.1 4.1,-4.1 2.26,0 4.125,1.837 4.125,4.1 0,2.26 -1.865,4.125 -4.125,4.125 -2.262,0 -4.1,-1.865 -4.1,-4.125 z m 8.225,0 c 0,-2.263 1.842,-4.1 4.1,-4.1 2.262,0 4.125,1.837 4.125,4.1 0,2.26 -1.863,4.125 -4.125,4.125 -2.258,0 -4.1,-1.865 -4.1,-4.125 z m 4.1,-4.1 c -2.258,0 -4.1,-1.865 -4.1,-4.125 0,-2.262 1.842,-4.1 4.1,-4.1 2.262,0 4.125,1.838 4.125,4.1 0,2.26 -1.863,4.125 -4.125,4.125 z m 4.125,-4.125 c 0,-2.262 1.839,-4.1 4.1,-4.1 2.26,0 4.1,1.838 4.1,4.1 0,2.26 -1.84,4.125 -4.1,4.125 -2.261,0 -4.1,-1.865 -4.1,-4.125 z m 4.1,-4.1 c -2.261,0 -4.1,-1.841 -4.1,-4.1 0,-2.261 1.839,-4.125 4.1,-4.125 2.26,0 4.1,1.864 4.1,4.125 0,2.259 -1.84,4.1 -4.1,4.1 z m 4.1,-4.1 c 0,-2.261 1.866,-4.125 4.125,-4.125 2.258,0 4.1,1.864 4.1,4.125 0,2.259 -1.842,4.1 -4.1,4.1 -2.259,0 -4.125,-1.841 -4.125,-4.1 z m 4.125,-4.125 c -2.259,0 -4.125,-1.838 -4.125,-4.1 0,-2.26 1.866,-4.125 4.125,-4.125 2.258,0 4.1,1.865 4.1,4.125 0,2.262 -1.842,4.1 -4.1,4.1 z m 0,-8.225 c -2.259,0 -4.125,-1.84 -4.125,-4.1 0,-2.26 1.866,-4.1 4.125,-4.1 2.258,0 4.1,1.84 4.1,4.1 0,2.26 -1.842,4.1 -4.1,4.1 z m 4.1,-4.1 c 0,-2.26 1.864,-4.1 4.125,-4.1 2.261,0 4.1,1.84 4.1,4.1 0,2.26 -1.839,4.1 -4.1,4.1 -2.261,0 -4.125,-1.84 -4.125,-4.1 z m 4.125,-4.1 c -2.261,0 -4.125,-1.865 -4.125,-4.125 0,-2.261 1.864,-4.1 4.125,-4.1 2.261,0 4.1,1.839 4.1,4.1 0,2.26 -1.839,4.125 -4.1,4.125 z m 0,-8.225 c -2.263,0 -4.125,-1.863 -4.125,-4.125 0,-2.259 1.862,-4.1 4.125,-4.1 2.259,0 4.1,1.841 4.1,4.1 0,2.262 -1.841,4.125 -4.1,4.125 z m 0,-8.225 c -2.263,0 -4.125,-1.865 -4.125,-4.125 0,-2.262 1.862,-4.1 4.125,-4.1 2.259,0 4.1,1.838 4.1,4.1 0,2.26 -1.841,4.125 -4.1,4.125 z m -4.125,-4.125 c 0,2.26 -1.842,4.125 -4.1,4.125 -2.263,0 -4.125,-1.865 -4.125,-4.125 0,-2.262 1.862,-4.1 4.125,-4.1 2.258,0 4.1,1.838 4.1,4.1 z m -4.1,-4.1 c -2.263,0 -4.125,-1.864 -4.125,-4.125 0,-2.261 1.862,-4.1 4.125,-4.1 2.258,0 4.1,1.839 4.1,4.1 0,2.261 -1.842,4.125 -4.1,4.125 z m 0,-8.225 c -2.263,0 -4.125,-1.838 -4.125,-4.1 0,-2.259 1.862,-4.125 4.125,-4.125 2.258,0 4.1,1.866 4.1,4.125 0,2.262 -1.842,4.1 -4.1,4.1 z m -4.125,-4.1 c 0,2.262 -1.838,4.1 -4.1,4.1 -2.261,0 -4.1,-1.838 -4.1,-4.1 0,-2.259 1.839,-4.125 4.1,-4.125 2.262,0 4.1,1.866 4.1,4.125 z m -4.1,-4.125 c -2.261,0 -4.1,-1.84 -4.1,-4.1 0,-2.26 1.839,-4.125 4.1,-4.125 2.262,0 4.1,1.865 4.1,4.125 0,2.26 -1.838,4.1 -4.1,4.1 z m -4.1,-4.1 c 0,2.26 -1.864,4.1 -4.125,4.1 -2.261,0 -4.1,-1.84 -4.1,-4.1 0,-2.26 1.839,-4.125 4.1,-4.125 2.261,0 4.125,1.865 4.125,4.125 z m -4.125,-4.125 c -2.261,0 -4.1,-1.84 -4.1,-4.1 0,-2.261 1.839,-4.1 4.1,-4.1 2.261,0 4.125,1.839 4.125,4.1 0,2.26 -1.864,4.1 -4.125,4.1 z m -4.1,-4.1 c 0,2.26 -1.863,4.1 -4.125,4.1 -2.258,0 -4.1,-1.84 -4.1,-4.1 0,-2.261 1.842,-4.1 4.1,-4.1 2.262,0 4.125,1.839 4.125,4.1 z m -8.225,0 c 0,2.26 -1.862,4.1 -4.125,4.1 -2.262,0 -4.1,-1.84 -4.1,-4.1 0,-2.261 1.838,-4.1 4.1,-4.1 2.263,0 4.125,1.839 4.125,4.1 z m -4.125,-4.1 c -2.262,0 -4.1,-1.862 -4.1,-4.125 0,-2.258 1.838,-4.1 4.1,-4.1 2.263,0 4.125,1.842 4.125,4.1 0,2.263 -1.862,4.125 -4.125,4.125 z m -4.1,-4.125 c 0,2.263 -1.839,4.125 -4.1,4.125 -2.259,0 -4.125,-1.862 -4.125,-4.125 0,-2.258 1.866,-4.1 4.125,-4.1 2.261,0 4.1,1.842 4.1,4.1 z m -8.225,0 c 0,2.263 -1.839,4.125 -4.1,4.125 -0.14144,0 -0.28715,-0.0109 -0.425,-0.025 -1.92984,-0.19733 -3.47778,-1.74506 -3.675,-3.675 -0.0141,-0.13786 -0.025,-0.28356 -0.025,-0.425 0,-2.258 1.862,-4.1 4.125,-4.1 2.261,0 4.1,1.842 4.1,4.1 z m -8.225,0 c 0,2.263 -1.842,4.125 -4.1,4.125 -2.263,0 -4.125,-1.862 -4.125,-4.125 0,-2.258 1.862,-4.1 4.125,-4.1 2.258,0 4.1,1.842 4.1,4.1 z m -4.1,4.125 c 2.258,0 4.1,1.839 4.1,4.1 0,2.26 -1.842,4.1 -4.1,4.1 -2.263,0 -4.125,-1.84 -4.125,-4.1 0,-2.261 1.862,-4.1 4.125,-4.1 z m -4.125,4.1 c 0,2.26 -1.838,4.1 -4.1,4.1 -2.26,0 -4.1,-1.84 -4.1,-4.1 0,-2.261 1.84,-4.1 4.1,-4.1 2.262,0 4.1,1.839 4.1,4.1 z m -8.2,0 c 0,2.26 -1.867,4.1 -4.125,4.1 -2.262,0 -4.1,-1.84 -4.1,-4.1 0,-2.261 1.838,-4.1 4.1,-4.1 2.258,0 4.125,1.839 4.125,4.1 z m -4.125,4.1 c 2.258,0 4.125,1.865 4.125,4.125 0,2.26 -1.867,4.1 -4.125,4.1 -2.262,0 -4.1,-1.84 -4.1,-4.1 0,-2.26 1.838,-4.125 4.1,-4.125 z m -4.1,4.125 c 0,2.26 -1.862,4.1 -4.125,4.1 -2.26,0 -4.1,-1.84 -4.1,-4.1 0,-2.26 1.84,-4.125 4.1,-4.125 2.263,0 4.125,1.865 4.125,4.125 z m -4.125,4.1 c 2.263,0 4.125,1.864 4.125,4.125 0,2.26 -1.862,4.1 -4.125,4.1 -2.26,0 -4.1,-1.84 -4.1,-4.1 0,-2.261 1.84,-4.125 4.1,-4.125 z m -4.1,4.125 c 0,2.26 -1.862,4.1 -4.125,4.1 -2.26,0 -4.1,-1.84 -4.1,-4.1 0,-2.261 1.84,-4.125 4.1,-4.125 2.263,0 4.125,1.864 4.125,4.125 z m -4.125,4.1 c 2.263,0 4.125,1.863 4.125,4.125 0,2.26 -1.862,4.1 -4.125,4.1 -2.26,0 -4.1,-1.84 -4.1,-4.1 0,-2.262 1.84,-4.125 4.1,-4.125 z m 0,8.225 c 2.263,0 4.125,1.838 4.125,4.1 0,2.26 -1.862,4.125 -4.125,4.125 -2.26,0 -4.1,-1.865 -4.1,-4.125 0,-2.262 1.84,-4.1 4.1,-4.1 z m -4.1,4.1 c 0,2.26 -1.8402,4.125 -4.1,4.125 -2.26091,0 -4.125,-1.865 -4.125,-4.125 0,-2.262 1.86409,-4.1 4.125,-4.1 2.2598,0 4.1,1.838 4.1,4.1 z m -4.1,4.125 c 2.2598,0 4.1,1.841 4.1,4.1 0,2.26 -1.8402,4.125 -4.1,4.125 -2.26091,0 -4.125,-1.865 -4.125,-4.125 0,-2.259 1.86409,-4.1 4.125,-4.1 z m 0,8.225 c 2.2629,0 4.1,1.839 4.1,4.1 0,2.262 -1.8371,4.125 -4.1,4.125 -2.26171,0 -4.125,-1.863 -4.125,-4.125 0,-2.261 1.86329,-4.1 4.125,-4.1 z m 0,8.225 c 2.2629,0 4.1,1.84 4.1,4.1 0,2.263 -1.8371,4.1 -4.1,4.1 -2.26171,0 -4.125,-1.837 -4.125,-4.1 0,-2.26 1.86329,-4.1 4.125,-4.1 z m 4.1,4.1 c 0,-2.26 1.842,-4.1 4.1,-4.1 2.263,0 4.125,1.84 4.125,4.1 0,2.263 -1.862,4.1 -4.125,4.1 -2.258,0 -4.1,-1.837 -4.1,-4.1 z m 4.1,4.1 c 2.263,0 4.125,1.863 4.125,4.125 0,2.26 -1.862,4.1 -4.125,4.1 -2.258,0 -4.1,-1.84 -4.1,-4.1 0,-2.262 1.842,-4.125 4.1,-4.125 z m 0,8.225 c 2.263,0 4.125,1.864 4.125,4.125 0,2.259 -1.862,4.1 -4.125,4.1 -2.258,0 -4.1,-1.841 -4.1,-4.1 0,-2.261 1.842,-4.125 4.1,-4.125 z m 4.125,4.125 c 0,-2.261 1.838,-4.125 4.1,-4.125 2.261,0 4.125,1.864 4.125,4.125 0,2.259 -1.864,4.1 -4.125,4.1 -2.262,0 -4.1,-1.841 -4.1,-4.1 z m 4.1,4.1 c 2.261,0 4.125,1.838 4.125,4.1 0,2.26 -1.864,4.125 -4.125,4.125 -2.262,0 -4.1,-1.865 -4.1,-4.125 0,-2.262 1.838,-4.1 4.1,-4.1 z m 4.125,4.1 c 0,-2.262 1.841,-4.1 4.1,-4.1 2.26,0 4.125,1.838 4.125,4.1 0,2.26 -1.865,4.125 -4.125,4.125 -2.259,0 -4.1,-1.865 -4.1,-4.125 z m 4.1,4.125 c 2.26,0 4.125,1.837 4.125,4.1 0,2.26 -1.865,4.125 -4.125,4.125 -2.259,0 -4.1,-1.865 -4.1,-4.125 0,-2.263 1.841,-4.1 4.1,-4.1 z m 4.125,4.1 c 0,-2.263 1.84,-4.1 4.1,-4.1 2.26,0 4.1,1.837 4.1,4.1 0,2.26 -1.84,4.125 -4.1,4.125 -2.26,0 -4.1,-1.865 -4.1,-4.125 z m 8.2,0 c 0,-2.263 1.864,-4.1 4.125,-4.1 2.26,0 4.1,1.837 4.1,4.1 0,2.26 -1.84,4.125 -4.1,4.125 -2.261,0 -4.125,-1.865 -4.125,-4.125 z m 8.225,0 c 0,-2.263 1.862,-4.1 4.125,-4.1 -2.23841,-0.0268 -4.075,-1.88156 -4.075,-4.125 0,-2.262 1.864,-4.1 4.125,-4.1 2.259,0 4.1,1.838 4.1,4.1 0,2.26 -1.841,4.125 -4.1,4.125 2.23642,0.0268 4.05,1.85358 4.05,4.1 0,2.26 -1.841,4.125 -4.1,4.125 -2.263,0 -4.125,-1.865 -4.125,-4.125 z m 8.225,0 c 0,-2.263 1.866,-4.1 4.125,-4.1 -2.21476,-0.0531 -4.025,-1.89812 -4.025,-4.125 0,-2.262 1.865,-4.1 4.125,-4.1 2.04492,0 3.74208,1.51226 4.05,3.475 0.30772,-1.96274 2.00778,-3.475 4.05,-3.475 2.263,0 4.125,1.838 4.125,4.1 0,2.26 -1.862,4.125 -4.125,4.125 -2.04631,0 -3.74729,-1.53317 -4.05,-3.5 -0.3029,1.96683 -2.00097,3.5 -4.05,3.5 2.21108,0.0563 4,1.87222 4,4.1 0,2.26 -1.841,4.125 -4.1,4.125 -2.259,0 -4.125,-1.865 -4.125,-4.125 z m 16.45,-8.225 c 0,-2.262 1.838,-4.1 4.1,-4.1 2.26,0 4.125,1.838 4.125,4.1 0,2.26 -1.865,4.125 -4.125,4.125 -2.262,0 -4.1,-1.865 -4.1,-4.125 z m 4.1,-4.1 c -2.262,0 -4.1,-1.841 -4.1,-4.1 0,-2.261 1.838,-4.125 4.1,-4.125 2.26,0 4.125,1.864 4.125,4.125 0,2.259 -1.865,4.1 -4.125,4.1 z m 4.125,-4.1 c 0,-2.261 1.842,-4.125 4.1,-4.125 2.262,0 4.125,1.864 4.125,4.125 0,2.259 -1.863,4.1 -4.125,4.1 -2.258,0 -4.1,-1.841 -4.1,-4.1 z m 4.1,-4.125 c -2.258,0 -4.1,-1.838 -4.1,-4.1 0,-2.26 1.842,-4.125 4.1,-4.125 2.262,0 4.125,1.865 4.125,4.125 0,2.262 -1.863,4.1 -4.125,4.1 z m 4.125,-4.1 c 0,-2.26 1.839,-4.125 4.1,-4.125 2.26,0 4.1,1.865 4.1,4.125 0,2.262 -1.84,4.1 -4.1,4.1 -2.261,0 -4.1,-1.838 -4.1,-4.1 z m 4.1,-4.125 c -2.261,0 -4.1,-1.84 -4.1,-4.1 0,-2.26 1.839,-4.1 4.1,-4.1 2.26,0 4.1,1.84 4.1,4.1 0,2.26 -1.84,4.1 -4.1,4.1 z m 0,-8.2 c -2.261,0 -4.1,-1.865 -4.1,-4.125 0,-2.261 1.839,-4.1 4.1,-4.1 2.26,0 4.1,1.839 4.1,4.1 0,2.26 -1.84,4.125 -4.1,4.125 z m 4.1,-4.125 c 0,-2.261 1.866,-4.1 4.125,-4.1 2.258,0 4.1,1.839 4.1,4.1 0,2.26 -1.842,4.125 -4.1,4.125 -2.259,0 -4.125,-1.865 -4.125,-4.125 z m 4.125,-4.1 c -2.263,0 -4.125,-1.863 -4.125,-4.125 0,-2.259 1.862,-4.1 4.125,-4.1 2.258,0 4.1,1.841 4.1,4.1 0,2.262 -1.842,4.125 -4.1,4.125 z m -4.125,-4.125 c 0,2.262 -1.838,4.125 -4.1,4.125 -2.261,0 -4.1,-1.863 -4.1,-4.125 0,-2.259 1.839,-4.1 4.1,-4.1 2.262,0 4.1,1.841 4.1,4.1 z m -4.1,-4.1 c -2.261,0 -4.1,-1.865 -4.1,-4.125 0,-2.262 1.839,-4.1 4.1,-4.1 2.262,0 4.1,1.838 4.1,4.1 0,2.26 -1.838,4.125 -4.1,4.125 z m 0,-8.225 c -2.261,0 -4.1,-1.864 -4.1,-4.125 0,-2.261 1.839,-4.1 4.1,-4.1 2.262,0 4.1,1.839 4.1,4.1 0,2.261 -1.838,4.125 -4.1,4.125 z m -4.1,-4.125 c 0,2.261 -1.864,4.125 -4.125,4.125 -2.261,0 -4.1,-1.864 -4.1,-4.125 0,-2.261 1.839,-4.1 4.1,-4.1 2.261,0 4.125,1.839 4.125,4.1 z m -4.125,-4.1 c -2.261,0 -4.1,-1.838 -4.1,-4.1 0,-2.259 1.839,-4.125 4.1,-4.125 2.261,0 4.125,1.866 4.125,4.125 0,2.262 -1.864,4.1 -4.125,4.1 z m -4.1,-4.1 c 0,2.262 -1.863,4.1 -4.125,4.1 -2.258,0 -4.1,-1.838 -4.1,-4.1 0,-2.259 1.842,-4.125 4.1,-4.125 2.262,0 4.125,1.866 4.125,4.125 z m -4.125,-4.125 c -2.258,0 -4.1,-1.84 -4.1,-4.1 0,-2.26 1.842,-4.125 4.1,-4.125 2.262,0 4.125,1.865 4.125,4.125 0,2.26 -1.863,4.1 -4.125,4.1 z m -4.1,-4.1 c 0,2.26 -1.862,4.1 -4.125,4.1 -2.04994,0 -3.74756,-1.50802 -4.05,-3.475 -0.30304,1.96698 -2.00279,3.475 -4.05,3.475 -2.262,0 -4.125,-1.84 -4.125,-4.1 0,-2.22688 1.80838,-4.07187 4.025,-4.125 -2.259,0 -4.125,-1.84 -4.125,-4.1 0,-2.261 1.866,-4.1 4.125,-4.1 2.261,0 4.1,1.839 4.1,4.1 0,2.22469 -1.78726,4.04341 -4,4.1 2.04721,0 3.74696,1.53302 4.05,3.5 0.30244,-1.96698 2.00006,-3.5 4.05,-3.5 2.263,0 4.125,1.865 4.125,4.125 z m -16.45,-8.225 c 0,2.24234 -1.81312,4.07139 -4.05,4.1 2.259,0 4.1,1.865 4.1,4.125 0,2.26 -1.841,4.1 -4.1,4.1 -2.261,0 -4.125,-1.84 -4.125,-4.1 0,-2.24344 1.83659,-4.09816 4.075,-4.125 -0.28287,0 -0.5579,-0.02 -0.825,-0.075 -1.7362,-0.35768 -3.09187,-1.80986 -3.275,-3.6 -0.0141,-0.1377 -0.025,-0.28375 -0.025,-0.425 0,-2.11969 1.63232,-3.88858 3.7,-4.1 0.13784,-0.0141 0.28356,0 0.425,0 0.14131,0 0.26224,-0.0141 0.4,0 2.06625,0.21142 3.7,1.98031 3.7,4.1 z m 12.325,12.325 c 2.263,0 4.125,1.866 4.125,4.125 0,2.262 -1.862,4.1 -4.125,4.1 -2.262,0 -4.1,-1.838 -4.1,-4.1 0,-2.259 1.838,-4.125 4.1,-4.125 z m 0,8.225 c 2.263,0 4.125,1.839 4.125,4.1 0,2.261 -1.862,4.125 -4.125,4.125 -2.262,0 -4.1,-1.864 -4.1,-4.125 0,-2.261 1.838,-4.1 4.1,-4.1 z m 0,8.225 c 2.263,0 4.125,1.838 4.125,4.1 0,2.26 -1.862,4.125 -4.125,4.125 -2.262,0 -4.1,-1.865 -4.1,-4.125 0,-2.262 1.838,-4.1 4.1,-4.1 z m 0,8.225 c 2.263,0 4.125,1.841 4.125,4.1 0,2.262 -1.862,4.125 -4.125,4.125 -2.262,0 -4.1,-1.863 -4.1,-4.125 0,-2.259 1.838,-4.1 4.1,-4.1 z m 0,8.225 c 2.263,0 4.125,1.839 4.125,4.1 0,2.26 -1.862,4.125 -4.125,4.125 -2.258,0 -4.1,-1.865 -4.1,-4.125 0,-2.261 1.842,-4.1 4.1,-4.1 z m 0,8.225 c 2.263,0 4.125,1.84 4.125,4.1 0,2.26 -1.862,4.1 -4.125,4.1 -2.258,0 -4.1,-1.84 -4.1,-4.1 0,-2.26 1.842,-4.1 4.1,-4.1 z m 0,8.2 c 2.263,0 4.125,1.865 4.125,4.125 0,2.262 -1.862,4.1 -4.125,4.1 -2.258,0 -4.1,-1.838 -4.1,-4.1 0,-2.26 1.842,-4.125 4.1,-4.125 z m -4.1,4.125 c 0,2.262 -1.841,4.1 -4.1,4.1 -2.259,0 -4.125,-1.838 -4.125,-4.1 0,-2.26 1.866,-4.125 4.125,-4.125 2.259,0 4.1,1.865 4.1,4.125 z m -8.225,0 c 0,2.26 -1.841,4.1 -4.1,4.1 -2.263,0 -4.125,-1.84 -4.125,-4.1 0,-2.262 1.862,-4.125 4.125,-4.125 2.259,0 4.1,1.863 4.1,4.125 z m -8.225,0 c 0,2.26 -1.84,4.1 -4.1,4.1 -2.261,0 -4.125,-1.84 -4.125,-4.1 0,-2.262 1.864,-4.125 4.125,-4.125 2.26,0 4.1,1.863 4.1,4.125 z m -4.1,-4.125 c -2.261,0 -4.125,-1.837 -4.125,-4.1 0,-2.26 1.864,-4.1 4.125,-4.1 2.26,0 4.1,1.84 4.1,4.1 0,2.263 -1.84,4.1 -4.1,4.1 z m 0,-8.2 c -2.261,0 -4.125,-1.863 -4.125,-4.125 0,-2.261 1.864,-4.1 4.125,-4.1 2.26,0 4.1,1.839 4.1,4.1 0,2.262 -1.84,4.125 -4.1,4.125 z m 0,-8.225 c -2.263,0 -4.125,-1.865 -4.125,-4.125 0,-2.259 1.862,-4.1 4.125,-4.1 2.258,0 4.1,1.841 4.1,4.1 0,2.26 -1.842,4.125 -4.1,4.125 z m 0,-8.225 c -2.263,0 -4.125,-1.865 -4.125,-4.125 0,-2.262 1.862,-4.1 4.125,-4.1 2.258,0 4.1,1.838 4.1,4.1 0,2.26 -1.842,4.125 -4.1,4.125 z m 0,-8.225 c -2.263,0 -4.125,-1.84 -4.125,-4.1 0,-2.262 1.862,-4.125 4.125,-4.125 2.258,0 4.1,1.863 4.1,4.125 0,2.26 -1.842,4.1 -4.1,4.1 z m 0,-8.225 c -2.263,0 -4.125,-1.84 -4.125,-4.1 0,-2.261 1.862,-4.125 4.125,-4.125 2.258,0 4.1,1.864 4.1,4.125 0,2.26 -1.842,4.1 -4.1,4.1 z m 0,-8.225 c -2.263,0 -4.125,-1.84 -4.125,-4.1 0,-2.26 1.862,-4.125 4.125,-4.125 2.258,0 4.1,1.865 4.1,4.125 0,2.26 -1.842,4.1 -4.1,4.1 z m -4.125,-4.1 c 0,2.26 -1.838,4.1 -4.1,4.1 -2.26,0 -4.1,-1.84 -4.1,-4.1 0,-2.26 1.84,-4.125 4.1,-4.125 2.262,0 4.1,1.865 4.1,4.125 z m -4.1,4.1 c 2.262,0 4.1,1.864 4.1,4.125 0,2.26 -1.838,4.1 -4.1,4.1 -2.26,0 -4.1,-1.84 -4.1,-4.1 0,-2.261 1.84,-4.125 4.1,-4.125 z m -4.1,4.125 c 0,2.26 -1.867,4.1 -4.125,4.1 -2.262,0 -4.1,-1.84 -4.1,-4.1 0,-2.261 1.838,-4.125 4.1,-4.125 2.258,0 4.125,1.864 4.125,4.125 z m -4.125,4.1 c 2.258,0 4.125,1.863 4.125,4.125 0,2.26 -1.867,4.1 -4.125,4.1 -2.262,0 -4.1,-1.84 -4.1,-4.1 0,-2.262 1.838,-4.125 4.1,-4.125 z m -4.1,4.125 c 0,2.26 -1.862,4.1 -4.125,4.1 -2.26,0 -4.1,-1.84 -4.1,-4.1 0,-2.262 1.84,-4.125 4.1,-4.125 2.263,0 4.125,1.863 4.125,4.125 z m -4.125,4.1 c 2.263,0 4.125,1.838 4.125,4.1 0,2.26 -1.862,4.125 -4.125,4.125 -2.26,0 -4.1,-1.865 -4.1,-4.125 0,-2.262 1.84,-4.1 4.1,-4.1 z m 0,8.225 c 2.263,0 4.125,1.841 4.125,4.1 0,2.26 -1.862,4.125 -4.125,4.125 -2.26,0 -4.1,-1.865 -4.1,-4.125 0,-2.259 1.84,-4.1 4.1,-4.1 z m -4.1,4.1 c 0,2.26 -1.862,4.125 -4.125,4.125 -2.26,0 -4.1,-1.865 -4.1,-4.125 0,-2.259 1.84,-4.1 4.1,-4.1 2.263,0 4.125,1.841 4.125,4.1 z m -4.125,4.125 c 2.263,0 4.125,1.839 4.125,4.1 0,2.262 -1.862,4.125 -4.125,4.125 -2.258,0 -4.1,-1.863 -4.1,-4.125 0,-2.261 1.842,-4.1 4.1,-4.1 z m 4.125,4.1 c 0,-2.261 1.838,-4.1 4.1,-4.1 2.261,0 4.125,1.839 4.125,4.1 0,2.262 -1.864,4.125 -4.125,4.125 -2.262,0 -4.1,-1.863 -4.1,-4.125 z m 4.1,4.125 c 2.261,0 4.125,1.84 4.125,4.1 0,2.263 -1.864,4.1 -4.125,4.1 -2.262,0 -4.1,-1.837 -4.1,-4.1 0,-2.26 1.838,-4.1 4.1,-4.1 z m 0,8.2 c 2.261,0 4.125,1.863 4.125,4.125 0,2.26 -1.864,4.1 -4.125,4.1 -2.262,0 -4.1,-1.84 -4.1,-4.1 0,-2.262 1.838,-4.125 4.1,-4.125 z m 4.125,4.125 c 0,-2.262 1.841,-4.125 4.1,-4.125 2.26,0 4.125,1.863 4.125,4.125 0,2.26 -1.865,4.1 -4.125,4.1 -2.259,0 -4.1,-1.84 -4.1,-4.1 z m 4.1,4.1 c 2.26,0 4.125,1.864 4.125,4.125 0,2.259 -1.865,4.1 -4.125,4.1 -2.259,0 -4.1,-1.841 -4.1,-4.1 0,-2.261 1.841,-4.125 4.1,-4.125 z m 4.125,4.125 c 0,-2.261 1.84,-4.125 4.1,-4.125 2.26,0 4.1,1.864 4.1,4.125 0,2.259 -1.84,4.1 -4.1,4.1 -2.26,0 -4.1,-1.841 -4.1,-4.1 z m 4.1,4.1 c 2.26,0 4.1,1.838 4.1,4.1 0,2.26 -1.84,4.125 -4.1,4.125 -2.26,0 -4.1,-1.865 -4.1,-4.125 0,-2.262 1.84,-4.1 4.1,-4.1 z m 4.1,4.1 c 0,-2.262 1.864,-4.1 4.125,-4.1 2.26,0 4.1,1.838 4.1,4.1 0,2.26 -1.84,4.125 -4.1,4.125 -2.261,0 -4.125,-1.865 -4.125,-4.125 z m 4.125,-4.1 c -2.261,0 -4.125,-1.841 -4.125,-4.1 0,-2.261 1.864,-4.125 4.125,-4.125 2.26,0 4.1,1.864 4.1,4.125 0,2.259 -1.84,4.1 -4.1,4.1 z m -8.225,-8.225 c -2.26,0 -4.1,-1.84 -4.1,-4.1 0,-2.262 1.84,-4.125 4.1,-4.125 2.26,0 4.1,1.863 4.1,4.125 0,2.26 -1.84,4.1 -4.1,4.1 z m 0,-8.225 c -2.26,0 -4.1,-1.837 -4.1,-4.1 0,-2.26 1.84,-4.1 4.1,-4.1 2.26,0 4.1,1.84 4.1,4.1 0,2.263 -1.84,4.1 -4.1,4.1 z m 0,-8.2 c -2.26,0 -4.1,-1.863 -4.1,-4.125 0,-2.261 1.84,-4.1 4.1,-4.1 2.26,0 4.1,1.839 4.1,4.1 0,2.262 -1.84,4.125 -4.1,4.125 z m 0,-8.225 c -2.26,0 -4.1,-1.865 -4.1,-4.125 0,-2.259 1.84,-4.1 4.1,-4.1 2.262,0 4.1,1.841 4.1,4.1 0,2.26 -1.838,4.125 -4.1,4.125 z m 0,-8.225 c -2.26,0 -4.1,-1.865 -4.1,-4.125 0,-2.262 1.84,-4.1 4.1,-4.1 2.262,0 4.1,1.838 4.1,4.1 0,2.26 -1.838,4.125 -4.1,4.125 z m 0,-8.225 c -2.26,0 -4.1,-1.84 -4.1,-4.1 0,-2.262 1.84,-4.125 4.1,-4.125 2.262,0 4.1,1.863 4.1,4.125 0,2.26 -1.838,4.1 -4.1,4.1 z m -4.1,4.1 c 0,2.26 -1.867,4.125 -4.125,4.125 -2.262,0 -4.1,-1.865 -4.1,-4.125 0,-2.262 1.838,-4.1 4.1,-4.1 2.258,0 4.125,1.838 4.125,4.1 z m -4.125,4.125 c 2.258,0 4.125,1.841 4.125,4.1 0,2.26 -1.867,4.125 -4.125,4.125 -2.262,0 -4.1,-1.865 -4.1,-4.125 0,-2.259 1.838,-4.1 4.1,-4.1 z m 0,8.225 c 2.26,0 4.125,1.839 4.125,4.1 0,2.262 -1.865,4.125 -4.125,4.125 -2.259,0 -4.1,-1.863 -4.1,-4.125 0,-2.261 1.841,-4.1 4.1,-4.1 z m 0,8.225 c 2.26,0 4.125,1.84 4.125,4.1 0,2.263 -1.865,4.1 -4.125,4.1 -2.259,0 -4.1,-1.837 -4.1,-4.1 0,-2.26 1.841,-4.1 4.1,-4.1 z m 41.1,16.425 c 2.263,0 4.125,1.864 4.125,4.125 0,2.259 -1.862,4.1 -4.125,4.1 -2.258,0 -4.1,-1.841 -4.1,-4.1 0,-2.261 1.842,-4.125 4.1,-4.125 z m 4.125,-4.1 c 0,-2.26 1.838,-4.125 4.1,-4.125 2.26,0 4.125,1.865 4.125,4.125 0,2.262 -1.865,4.1 -4.125,4.1 -2.262,0 -4.1,-1.838 -4.1,-4.1 z m 4.1,-4.125 c -2.262,0 -4.1,-1.84 -4.1,-4.1 0,-2.26 1.838,-4.1 4.1,-4.1 2.26,0 4.125,1.84 4.125,4.1 0,2.26 -1.865,4.1 -4.125,4.1 z m 4.125,-4.1 c 0,-2.26 1.842,-4.1 4.1,-4.1 2.262,0 4.125,1.84 4.125,4.1 0,2.26 -1.863,4.1 -4.125,4.1 -2.258,0 -4.1,-1.84 -4.1,-4.1 z m 4.1,-4.1 c -2.258,0 -4.1,-1.865 -4.1,-4.125 0,-2.261 1.842,-4.1 4.1,-4.1 2.262,0 4.125,1.839 4.125,4.1 0,2.26 -1.863,4.125 -4.125,4.125 z m 0,-8.225 c -2.261,0 -4.1,-1.863 -4.1,-4.125 0,-2.259 1.839,-4.1 4.1,-4.1 2.261,0 4.125,1.841 4.125,4.1 0,2.262 -1.864,4.125 -4.125,4.125 z m 0,-8.225 c -2.261,0 -4.1,-1.865 -4.1,-4.125 0,-2.262 1.839,-4.1 4.1,-4.1 2.261,0 4.125,1.838 4.125,4.1 0,2.26 -1.864,4.125 -4.125,4.125 z m -4.1,-4.125 c 0,2.26 -1.863,4.125 -4.125,4.125 -2.258,0 -4.1,-1.865 -4.1,-4.125 0,-2.262 1.842,-4.1 4.1,-4.1 2.262,0 4.125,1.838 4.125,4.1 z m -4.125,-4.1 c -2.258,0 -4.1,-1.864 -4.1,-4.125 0,-2.261 1.842,-4.1 4.1,-4.1 2.262,0 4.125,1.839 4.125,4.1 0,2.261 -1.863,4.125 -4.125,4.125 z m 0,8.225 c 2.262,0 4.125,1.841 4.125,4.1 0,2.262 -1.863,4.125 -4.125,4.125 -2.258,0 -4.1,-1.863 -4.1,-4.125 0,-2.259 1.842,-4.1 4.1,-4.1 z m 0,8.225 c 2.26,0 4.125,1.839 4.125,4.1 0,2.26 -1.865,4.125 -4.125,4.125 -2.262,0 -4.1,-1.865 -4.1,-4.125 0,-2.261 1.838,-4.1 4.1,-4.1 z"
style="fill:#f47216;fill-opacity:1;fill-rule:nonzero;stroke:none" />

<path id="circle"
d="m 237.43709,195.97315 c 0,-42.345 -34.329,-76.673 -76.674,-76.673 -42.345,0 -76.673403,34.328 -76.673403,76.673 0,42.346 34.328403,76.674 76.673403,76.674 42.345,0 76.674,-34.328 76.674,-76.674 z"
style="fill:none;stroke:#f47216;stroke-width:8.53279972;stroke-linecap:butt;stroke-linejoin:miter;stroke-miterlimit:4;stroke-opacity:1;stroke-dasharray:none" />

<path id="ring2"
d="m 295.80509,268.72315 c 20.428,-37.725 -23.812,-101.232 -98.813,-141.852 -75.002,-40.614896 -152.367203,-42.960996 -172.796913,-5.237 -20.42889,37.725 23.81251,101.233 98.814913,141.85 75.002,40.618 152.366,42.961 172.795,5.239 z"
style="fill:none;stroke:#f47216;stroke-width:9.32625008;stroke-linecap:butt;stroke-linejoin:miter;stroke-miterlimit:4;stroke-opacity:1;stroke-dasharray:none" />

<path id="ring1"
d="m 26.509987,274.86915 c 21.6442,36.805 98.789103,31.584 172.313103,-11.656 73.519,-43.239 115.575,-108.128 93.932,-144.932 -21.647,-36.801896 -98.796,-31.581196 -172.318,11.66 -73.520803,43.239 -115.573163,108.128 -93.927103,144.928 z"
style="fill:none;stroke:#f47216;stroke-width:9.2656002;stroke-linecap:butt;stroke-linejoin:miter;stroke-miterlimit:4;stroke-opacity:1;stroke-dasharray:none" />

</g></g></svg>